<svg width="40" height="41" viewBox="0 0 40 41" fill="none" xmlns="http://www.w3.org/2000/svg">
<g id="Frame" clip-path="url(#clip0_35_490)">
<g id="SVGRepo_iconCarrier">
<g id="Vector">
<path d="M36.6173 31.0506C36.6173 31.6507 36.484 32.2673 36.2007 32.8673C35.9173 33.4673 35.5507 34.034 35.0673 34.5673C34.2507 35.4673 33.3507 36.1173 32.334 36.534C31.334 36.9507 30.2507 37.1673 29.084 37.1673C27.384 37.1673 25.5673 36.7673 23.6507 35.9506C21.734 35.134 19.8173 34.034 17.9173 32.6507C16.0007 31.2507 14.184 29.7006 12.4507 27.984C10.734 26.2507 9.18398 24.434 7.80065 22.534C6.43398 20.634 5.33398 18.734 4.53398 16.8507C3.73398 14.9507 3.33398 13.134 3.33398 11.4007C3.33398 10.2673 3.53398 9.18398 3.93398 8.18398C4.33398 7.16732 4.96732 6.23398 5.85065 5.40065C6.91732 4.35065 8.08398 3.83398 9.31732 3.83398C9.78399 3.83398 10.2507 3.93398 10.6673 4.13398C11.1007 4.33398 11.484 4.63398 11.784 5.06732L15.6507 10.5173C15.9507 10.934 16.1673 11.3173 16.3173 11.684C16.4673 12.034 16.5507 12.384 16.5507 12.7007C16.5507 13.1007 16.434 13.5007 16.2007 13.884C15.984 14.2673 15.6673 14.6673 15.2673 15.0673L14.0007 16.384C13.8173 16.5673 13.734 16.784 13.734 17.0507C13.734 17.184 13.7507 17.3007 13.784 17.434C13.834 17.5673 13.884 17.6673 13.9173 17.7673C14.2173 18.3173 14.734 19.034 15.4673 19.9007C16.2173 20.7673 17.0173 21.6507 17.884 22.534C18.784 23.4173 19.6507 24.234 20.534 24.984C21.4007 25.7173 22.1173 26.2173 22.684 26.5173C22.7673 26.5506 22.8673 26.6006 22.984 26.6507C23.1173 26.7006 23.2507 26.7173 23.4007 26.7173C23.684 26.7173 23.9007 26.6173 24.084 26.434L25.3507 25.184C25.7673 24.7673 26.1673 24.4507 26.5507 24.2507C26.934 24.0173 27.3173 23.9007 27.734 23.9007C28.0507 23.9007 28.384 23.9673 28.7507 24.1173C29.1173 24.2673 29.5007 24.484 29.9173 24.7673L35.434 28.684C35.8673 28.984 36.1673 29.334 36.3507 29.7506C36.5173 30.1673 36.6173 30.584 36.6173 31.0506Z" fill="url(#paint0_linear_35_490)"/>
<path d="M36.6173 31.0506C36.6173 31.6507 36.484 32.2673 36.2007 32.8673C35.9173 33.4673 35.5507 34.034 35.0673 34.5673C34.2507 35.4673 33.3507 36.1173 32.334 36.534C31.334 36.9507 30.2507 37.1673 29.084 37.1673C27.384 37.1673 25.5673 36.7673 23.6507 35.9506C21.734 35.134 19.8173 34.034 17.9173 32.6507C16.0007 31.2507 14.184 29.7006 12.4507 27.984C10.734 26.2507 9.18398 24.434 7.80065 22.534C6.43398 20.634 5.33398 18.734 4.53398 16.8507C3.73398 14.9507 3.33398 13.134 3.33398 11.4007C3.33398 10.2673 3.53398 9.18398 3.93398 8.18398C4.33398 7.16732 4.96732 6.23398 5.85065 5.40065C6.91732 4.35065 8.08398 3.83398 9.31732 3.83398C9.78399 3.83398 10.2507 3.93398 10.6673 4.13398C11.1007 4.33398 11.484 4.63398 11.784 5.06732L15.6507 10.5173C15.9507 10.934 16.1673 11.3173 16.3173 11.684C16.4673 12.034 16.5507 12.384 16.5507 12.7007C16.5507 13.1007 16.434 13.5007 16.2007 13.884C15.984 14.2673 15.6673 14.6673 15.2673 15.0673L14.0007 16.384C13.8173 16.5673 13.734 16.784 13.734 17.0507C13.734 17.184 13.7507 17.3007 13.784 17.434C13.834 17.5673 13.884 17.6673 13.9173 17.7673C14.2173 18.3173 14.734 19.034 15.4673 19.9007C16.2173 20.7673 17.0173 21.6507 17.884 22.534C18.784 23.4173 19.6507 24.234 20.534 24.984C21.4007 25.7173 22.1173 26.2173 22.684 26.5173C22.7673 26.5506 22.8673 26.6006 22.984 26.6507C23.1173 26.7006 23.2507 26.7173 23.4007 26.7173C23.684 26.7173 23.9007 26.6173 24.084 26.434L25.3507 25.184C25.7673 24.7673 26.1673 24.4507 26.5507 24.2507C26.934 24.0173 27.3173 23.9007 27.734 23.9007C28.0507 23.9007 28.384 23.9673 28.7507 24.1173C29.1173 24.2673 29.5007 24.484 29.9173 24.7673L35.434 28.684C35.8673 28.984 36.1673 29.334 36.3507 29.7506C36.5173 30.1673 36.6173 30.584 36.6173 31.0506Z" stroke="white" stroke-width="5.83333" stroke-miterlimit="10"/>
<path d="M36.6173 31.0506C36.6173 31.6507 36.484 32.2673 36.2007 32.8673C35.9173 33.4673 35.5507 34.034 35.0673 34.5673C34.2507 35.4673 33.3507 36.1173 32.334 36.534C31.334 36.9507 30.2507 37.1673 29.084 37.1673C27.384 37.1673 25.5673 36.7673 23.6507 35.9506C21.734 35.134 19.8173 34.034 17.9173 32.6507C16.0007 31.2507 14.184 29.7006 12.4507 27.984C10.734 26.2507 9.18398 24.434 7.80065 22.534C6.43398 20.634 5.33398 18.734 4.53398 16.8507C3.73398 14.9507 3.33398 13.134 3.33398 11.4007C3.33398 10.2673 3.53398 9.18398 3.93398 8.18398C4.33398 7.16732 4.96732 6.23398 5.85065 5.40065C6.91732 4.35065 8.08398 3.83398 9.31732 3.83398C9.78399 3.83398 10.2507 3.93398 10.6673 4.13398C11.1007 4.33398 11.484 4.63398 11.784 5.06732L15.6507 10.5173C15.9507 10.934 16.1673 11.3173 16.3173 11.684C16.4673 12.034 16.5507 12.384 16.5507 12.7007C16.5507 13.1007 16.434 13.5007 16.2007 13.884C15.984 14.2673 15.6673 14.6673 15.2673 15.0673L14.0007 16.384C13.8173 16.5673 13.734 16.784 13.734 17.0507C13.734 17.184 13.7507 17.3007 13.784 17.434C13.834 17.5673 13.884 17.6673 13.9173 17.7673C14.2173 18.3173 14.734 19.034 15.4673 19.9007C16.2173 20.7673 17.0173 21.6507 17.884 22.534C18.784 23.4173 19.6507 24.234 20.534 24.984C21.4007 25.7173 22.1173 26.2173 22.684 26.5173C22.7673 26.5506 22.8673 26.6006 22.984 26.6507C23.1173 26.7006 23.2507 26.7173 23.4007 26.7173C23.684 26.7173 23.9007 26.6173 24.084 26.434L25.3507 25.184C25.7673 24.7673 26.1673 24.4507 26.5507 24.2507C26.934 24.0173 27.3173 23.9007 27.734 23.9007C28.0507 23.9007 28.384 23.9673 28.7507 24.1173C29.1173 24.2673 29.5007 24.484 29.9173 24.7673L35.434 28.684C35.8673 28.984 36.1673 29.334 36.3507 29.7506C36.5173 30.1673 36.6173 30.584 36.6173 31.0506Z" stroke="url(#paint1_linear_35_490)" stroke-width="5.83333" stroke-miterlimit="10"/>
</g>
<g id="Vector_2" opacity="0.4">
<path d="M30.8333 15.5013C30.8333 14.5013 30.05 12.968 28.8833 11.718C27.8167 10.568 26.4 9.66797 25 9.66797" fill="url(#paint2_linear_35_490)"/>
<path d="M30.8333 15.5013C30.8333 14.5013 30.05 12.968 28.8833 11.718C27.8167 10.568 26.4 9.66797 25 9.66797" stroke="white" stroke-width="2.5" stroke-linecap="round" stroke-linejoin="round"/>
<path d="M30.8333 15.5013C30.8333 14.5013 30.05 12.968 28.8833 11.718C27.8167 10.568 26.4 9.66797 25 9.66797" stroke="url(#paint3_linear_35_490)" stroke-width="2.5" stroke-linecap="round" stroke-linejoin="round"/>
</g>
<g id="Vector_3" opacity="0.4">
<path d="M36.6667 15.5007C36.6667 9.05065 31.45 3.83398 25 3.83398L36.6667 15.5007Z" fill="url(#paint4_linear_35_490)"/>
<path d="M36.6667 15.5007C36.6667 9.05065 31.45 3.83398 25 3.83398" stroke="white" stroke-width="2.5" stroke-linecap="round" stroke-linejoin="round"/>
<path d="M36.6667 15.5007C36.6667 9.05065 31.45 3.83398 25 3.83398" stroke="url(#paint5_linear_35_490)" stroke-width="2.5" stroke-linecap="round" stroke-linejoin="round"/>
</g>
</g>
</g>
<defs>
<linearGradient id="paint0_linear_35_490" x1="19.9757" y1="37.1673" x2="19.9757" y2="3.83398" gradientUnits="userSpaceOnUse">
<stop stop-color="#E3FF00"/>
<stop offset="0.65" stop-color="#057BC1"/>
<stop offset="1" stop-color="#04598B"/>
</linearGradient>
<linearGradient id="paint1_linear_35_490" x1="19.9757" y1="37.1673" x2="19.9757" y2="3.83398" gradientUnits="userSpaceOnUse">
<stop stop-color="#E3FF00"/>
<stop offset="0.65" stop-color="#057BC1"/>
<stop offset="1" stop-color="#04598B"/>
</linearGradient>
<linearGradient id="paint2_linear_35_490" x1="27.9167" y1="15.5013" x2="27.9167" y2="9.66797" gradientUnits="userSpaceOnUse">
<stop stop-color="#E3FF00"/>
<stop offset="0.65" stop-color="#057BC1"/>
<stop offset="1" stop-color="#04598B"/>
</linearGradient>
<linearGradient id="paint3_linear_35_490" x1="27.9167" y1="15.5013" x2="27.9167" y2="9.66797" gradientUnits="userSpaceOnUse">
<stop stop-color="#E3FF00"/>
<stop offset="0.65" stop-color="#057BC1"/>
<stop offset="1" stop-color="#04598B"/>
</linearGradient>
<linearGradient id="paint4_linear_35_490" x1="30.8333" y1="15.5007" x2="30.8333" y2="3.83398" gradientUnits="userSpaceOnUse">
<stop stop-color="#E3FF00"/>
<stop offset="0.65" stop-color="#057BC1"/>
<stop offset="1" stop-color="#04598B"/>
</linearGradient>
<linearGradient id="paint5_linear_35_490" x1="30.8333" y1="15.5007" x2="30.8333" y2="3.83398" gradientUnits="userSpaceOnUse">
<stop stop-color="#E3FF00"/>
<stop offset="0.65" stop-color="#057BC1"/>
<stop offset="1" stop-color="#04598B"/>
</linearGradient>
<clipPath id="clip0_35_490">
<rect width="40" height="40" fill="white" transform="translate(0 0.5)"/>
</clipPath>
</defs>
</svg>
