<svg width="22" height="12" viewBox="0 0 22 12" fill="none" xmlns="http://www.w3.org/2000/svg">
<g id="SVGRepo_iconCarrier">
<path id="Vector" d="M1.68955 0.704754C1.52638 0.324034 1.08547 0.147665 0.704755 0.310834C0.324035 0.474004 0.147664 0.914915 0.310834 1.29563L1.68955 0.704754ZM21.6896 1.29563C21.8527 0.914915 21.6764 0.474004 21.2956 0.310834C20.9149 0.147665 20.474 0.324034 20.3108 0.704754L21.6896 1.29563ZM11.0002 7.25019C7.7763 7.25019 5.46152 5.64479 3.92479 3.98985C3.15664 3.16262 2.59344 2.33303 2.22278 1.71033C2.03788 1.39969 1.90206 1.14251 1.81359 0.965565C1.76938 0.877155 1.73708 0.808945 1.71646 0.764305C1.70616 0.741995 1.69878 0.725595 1.6943 0.715525C1.69206 0.710495 1.69034 0.706564 1.68955 0.704754C1.68953 0.704714 1.68958 0.704834 1.68955 0.704754C1.68965 0.704984 1.68955 0.704755 1.00019 1.00019C0.310834 1.29563 0.310684 1.29529 0.310834 1.29563C0.310894 1.29578 0.311334 1.29679 0.311464 1.29709C0.311714 1.29768 0.312025 1.29839 0.312375 1.29919C0.313065 1.30081 0.313954 1.30285 0.315024 1.30531C0.317174 1.31022 0.320074 1.31681 0.323724 1.32502C0.331024 1.34144 0.341344 1.36434 0.354724 1.3933C0.381464 1.45121 0.420455 1.53339 0.471955 1.63638C0.574885 1.84225 0.728135 2.13194 0.933855 2.47755C1.34444 3.16735 1.96874 4.08779 2.82559 5.01049C4.53886 6.85559 7.22408 8.75019 11.0002 8.75019V7.25019ZM14.3127 6.63099C13.3423 7.01299 12.2419 7.25019 11.0002 7.25019V8.75019C12.4384 8.75019 13.7248 8.47439 14.8621 8.02679L14.3127 6.63099ZM21.0002 1.00019C20.3108 0.704755 20.3107 0.704894 20.3108 0.704754C20.3109 0.704594 20.3113 0.703685 20.3113 0.703795C20.3112 0.703995 20.3109 0.704715 20.3103 0.705955C20.3092 0.708425 20.3072 0.712945 20.3043 0.719435C20.2985 0.732425 20.2891 0.753285 20.276 0.781445C20.2497 0.837765 20.2088 0.923145 20.1528 1.03286C20.0408 1.25246 19.8692 1.5685 19.6356 1.94339C19.1671 2.69535 18.4565 3.67216 17.4869 4.58219L18.5135 5.67589C19.6025 4.65369 20.3919 3.56606 20.9087 2.73665C21.1678 2.32087 21.3602 1.96699 21.4891 1.71434C21.5535 1.58794 21.6022 1.48662 21.6355 1.41526C21.6521 1.37958 21.6649 1.35137 21.6739 1.33123C21.6784 1.32116 21.682 1.31311 21.6846 1.30715C21.6859 1.30417 21.6869 1.30172 21.6878 1.29979C21.6882 1.29883 21.6885 1.298 21.6888 1.29731C21.689 1.29696 21.6895 1.29591 21.6896 1.29563C21.6896 1.2957 21.6897 1.29549 21.6896 1.29563C21.6897 1.29546 21.6896 1.29563 21.0002 1.00019ZM17.4869 4.58219C16.6279 5.38839 15.5741 6.13449 14.3127 6.63099L14.8621 8.02679C16.3357 7.44679 17.5468 6.58319 18.5135 5.67589L17.4869 4.58219Z" fill="black"/>
<path id="Vector_2" opacity="0.5" d="M11.75 8.00008C11.75 7.58588 11.4142 7.25008 11 7.25008C10.5858 7.25008 10.25 7.58588 10.25 8.00008H11.75ZM15.2158 6.91968C14.9899 6.57248 14.5253 6.47418 14.1781 6.70008C13.831 6.92598 13.7326 7.39058 13.9586 7.73778L15.2158 6.91968ZM8.04145 7.73778C8.26736 7.39058 8.16904 6.92598 7.82185 6.70008C7.47466 6.47418 7.01008 6.57248 6.78417 6.91968L8.04145 7.73778ZM5.37136 9.09098C5.14545 9.43818 5.24377 9.90278 5.59096 10.1287C5.93815 10.3546 6.40273 10.2563 6.62864 9.90908L5.37136 9.09098ZM18.5303 4.59858C18.2374 4.30568 17.7626 4.30568 17.4697 4.59858C17.1768 4.89148 17.1768 5.36628 17.4697 5.65918L18.5303 4.59858ZM18.9697 7.15918C19.2626 7.45208 19.7374 7.45208 20.0303 7.15918C20.3232 6.86628 20.3232 6.39148 20.0303 6.09858L18.9697 7.15918ZM10.25 10.5001C10.25 10.9143 10.5858 11.2501 11 11.2501C11.4142 11.2501 11.75 10.9143 11.75 10.5001H10.25ZM15.3714 9.90908C15.5973 10.2563 16.0619 10.3546 16.409 10.1287C16.7562 9.90278 16.8545 9.43818 16.6286 9.09098L15.3714 9.90908ZM4.53033 5.65918C4.82322 5.36628 4.82322 4.89148 4.53033 4.59858C4.23744 4.30568 3.76256 4.30568 3.46967 4.59858L4.53033 5.65918ZM1.96967 6.09858C1.67678 6.39148 1.67678 6.86628 1.96967 7.15918C2.26256 7.45208 2.73744 7.45208 3.03033 7.15918L1.96967 6.09858ZM6.78417 6.91968L5.37136 9.09098L6.62864 9.90908L8.04145 7.73778L6.78417 6.91968ZM17.4697 5.65918L18.9697 7.15918L20.0303 6.09858L18.5303 4.59858L17.4697 5.65918ZM10.25 8.00008V10.5001H11.75V8.00008H10.25ZM13.9586 7.73778L15.3714 9.90908L16.6286 9.09098L15.2158 6.91968L13.9586 7.73778ZM3.46967 4.59858L1.96967 6.09858L3.03033 7.15918L4.53033 5.65918L3.46967 4.59858Z" fill="black"/>
</g>
</svg>
